<svg xmlns="http://www.w3.org/2000/svg" xmlns:xlink="http://www.w3.org/1999/xlink"><symbol id="text-logo" viewBox="0 0 101 18"><path fill="#111111" d="M1.2 16.6c-.8-1-1.2-2.5-1.2-4.4V5.9C0 4 .4 2.5 1.2 1.5 2 .5 3.4 0 5.4 0c1.9 0 3.2.4 4 1.3.8.9 1.2 2.1 1.2 3.8v1.5h-4V4.8c0-.7-.1-1.2-.2-1.6-.1-.3-.5-.5-1-.5s-1 .2-1.1.6c-.2.4-.3.9-.3 1.6v8.3c0 .7.1 1.2.3 1.6.2.4.5.6 1.1.6.5 0 .9-.2 1-.6.2-.4.2-.9.2-1.6v-1.8h3.9v1.5c0 1.6-.4 2.9-1.2 3.9-.8.9-2.1 1.4-4 1.4-1.9-.1-3.3-.6-4.1-1.6zM15.2.2h4.5L23 17.8h-3.6l-.6-3.7h-2.6l-.6 3.7h-3.7L15.2.2zm3.2 11.6l-.9-6.9-.9 6.9h1.8zM25.8 3.1h-2.7V.2h9.3v2.9h-2.7v14.7h-4V3.1zM39.5.2h6.9V2H42v5.8h3.6v1.7H42v6.4h4.5v1.8h-7V.2zM48.5.2h1.7l5.1 11.7V.2h2.1v17.6h-1.6l-5.1-12v12h-2.1V.2zM59.8.2h6.9V2h-4.4v5.8h3.6v1.7h-3.6v6.4h4.5v1.8h-7V.2zM68.8.2h3.6c1.8 0 3.1.4 4 1.1s1.3 1.9 1.3 3.6c0 2.3-.7 3.6-2.2 4.1l2.5 8.8h-2.4l-2.3-8.3h-1.9v8.3h-2.5V.2zm3.4 7.6c1.1 0 1.8-.2 2.3-.6.5-.4.7-1.2.7-2.3 0-.7-.1-1.3-.2-1.7s-.4-.7-.9-.9c-.4-.2-1-.3-1.7-.3h-1.1v5.8h.9zM80.8 16.5c-.7-1-1.1-2.5-1.1-4.5V6.2c0-1.4.1-2.5.4-3.4.3-.9.8-1.5 1.5-2s1.7-.7 2.9-.7c1.6 0 2.8.4 3.6 1.2.7.8 1.1 2.1 1.1 3.9v.7h-2.3v-.6c0-.8-.1-1.5-.2-1.9-.1-.5-.3-.8-.7-1-.3-.3-.8-.4-1.4-.4-.7 0-1.2.2-1.5.5-.3.3-.6.7-.7 1.2-.1.5-.1 1.2-.1 2.1v6.5c0 1.3.2 2.3.5 2.9.3.6 1 .9 1.9.9.9 0 1.6-.3 1.9-1 .3-.6.5-1.7.5-3.1v-1.2h-2.3V9.1h4.5v8.7h-1.6l-.2-2c-.6 1.5-1.6 2.2-3.2 2.2s-2.8-.5-3.5-1.5zM94.3 11.6L90.4.2h2.3l2.7 8.5L98.1.2h2.3l-3.8 11.4v6.2h-2.4v-6.2z"/></symbol><symbol id="adaptive-logo--desktop" viewBox="0 0 202 59"><path fill="#fdc305" d="M59.9 24C54.4 11 39.4 4.8 26.4 10.2S7.2 30.7 12.6 43.7c3.6 8.6 11.3 14.2 19.9 15.5-.6-2.1-1.2-4.4-1.7-6.9 1.5 1 3.1 1.8 4.8 2.6 0 0 .1 2.2.3 4.6 1.8 0 3.6-.1 5.3-.5v-.8c.3-1.9 1.1-5.2 1.2-7.4 1.1-1.1 2.1-2.3 2.9-3.7 0 .1 0 .3-.1.4-.6 4.3-1.7 8.8-2.4 10.1-.2.4-.5.9-.8 1.2 1.4-.3 2.7-.8 4.1-1.3C59.2 52 65.3 37 59.9 24zm-1.5 3.8c-.4.4-1.3.7-1.5-.6s-.2-2.2-.2-2.2-1.9-3.4-2.7-3.5c-.7 0-5.8 3.5-7.2 5-1.2 1.3-1.4 1.2-1.4 3.5 0 1.7.2 8.2.1 13.1 0 0-2.2.6-8.1 2.2-6 1.6-7.8 1.8-7.8 1.8l-1-5.8L25.9 28s-3.8-1.4-5.2-1.8c-1.4-.4-2.3-.7-4 .6-1.8 1.3-1.7 3.9-1.7 3.9s.4 1 .5 1.4c0 .5-1.2.4-2 .4s-.9-1.4-.3-3.1c.6-1.7 1.9-3.7 1.9-3.7s1.2-2.3 2.1-2.9c0 0 .1-.3 1.3-.2 1.1.1 7.3.4 7.3.4l.1-2.3c6.7-.9 13.5-1.4 20.2-1.3 0 .6 0 1.2-.1 1.8 0 0 4.4-2 8.1-2 0 0 .4 0 .8.4.3.4 2.4 3 2.7 3.4.2.4 1.2 1.7 1.8 3-.1 0-.6 1.3-1 1.8z"/><path fill="#f06351" d="M56.5 21.7c.5.6.9 1.1 1 1.3.2.4 1.2 1.7 1.8 3 0 0-.4 1.3-.9 1.8s-1.3.7-1.5-.6-.2-2.2-.2-2.2-1.9-3.4-2.7-3.5c-.7 0-5.8 3.5-7.2 5-1.2 1.3-1.4 1.2-1.4 3.5 0 1.5.2 6.6.1 11.2 1.8.2 4.5.7 5.3 1.9 0 0-.3-7.2 7.8-3.4 0 0 .3-9.8 11.5-7.3.1 0-5.6-7-13.6-10.7zM45.9 19.4c.1-8.5-1.4-16.5-1.4-16.5s-.1-1.3-.9-.2c-.7 1.1-1.2 4-1.2 4-7.4-.6-12.8.2-12.8.2-.8-2.7-2.2-4-2.9-3.7-.6.3-.7 3.3-.7 3.3l-.3 14.2c6.7-.9 13.5-1.4 20.2-1.3z"/><path d="M45.4 47.1c.1-1.1.2-2.5.2-4.1 0 0-2.2.6-8.1 2.2-6 1.6-7.8 1.8-7.8 1.8l1.1 5c0 .1 0 .2.1.3 1.5 1 3.1 1.8 4.8 2.6 4.4-2.2 6.9-4.1 6.9-4.1v.1c1-1.1 2-2.4 2.8-3.8z" fill="#e55645"/><path d="M32 16.2c0-.1 1 .7 1.4.9.4.2.6.4.6.6 0 .2-.3.3-.6.3s-.9-.1-1-.3h1.2c.1.1-1.3-1-1.6-1.5zM39.5 16.3l-1.1 1.3c0 .1-.2.3.2.3s1.1-.2 1.2-.3c.1-.1.1-.2-.1-.2s-.7 0-1 .1l.8-1.2c.1 0 .1-.1 0 0zM36.4 22.4s.8-.4 1.1-1c.3-.7 0-.9-.4-1s-1.3 0-1.7.3c-.4.4-.3.7-.1 1 .2.3.8.7 1.1.7z"/><path fill="#f06351" d="M35.9 23.7s-.2.4-.5.6c-.2.2-.6.4-1 .4-.6 0-1.1-.2-1.5-.4-.2-.1-.4-.3-.5-.4-.2-.2-.4-.3-.4-.3s.8 4.1 2.6 4.8c1.8.7 2.2-.8 2.2-1.1 0-.3 0-2.1-.8-3.2.1-.5 0-.3-.1-.4z"/><path d="M34.3 24.8c-1.3 0-2.3-1.4-2.4-1.4v-.2h.2s1 1.3 2.1 1.3c.6 0 1.1-.3 1.6-1l.1-.2.1.2s.4.8 1 .8c.5 0 1.1-.4 1.6-1.3 0-.1.1-.1.2 0 .1 0 .1.1 0 .2-.6 1-1.3 1.5-1.9 1.4-.6 0-.9-.5-1.1-.8-.3.7-.9 1-1.5 1z"/><circle fill="#fdc305" cx="36.3" cy="34.5" r="3.8"/><path fill="#111111" d="M41.2 31.5l-3.1 1.3 1.1-5.6-7.5 9.8 3.1-1.3-1.1 5.6 7.5-9.8zm-7.4 3.8l4.1-5.4-.8 4 2-.8-4.1 5.4.8-4-2 .8z"/><circle fill="#111111" cx="32.4" cy="32.7" r="1.1"/><circle fill="#111111" cx="39" cy="37.1" r=".8"/><circle fill="#111111" cx="39.9" cy="35.4" r=".3"/><path fill="#f06351" d="M45.9 21.2s-2.6 2.3-5.1 5.2-5.3 4.9-5.3 4.9c-.2-.5-1.6-1.5-1.6-1.5s-3.1-2.1-5.2-3.8c-1.2-1-2.4-2.2-3.1-3-.3 0-1.1-.1-2-.1 4.7 7 12 8.8 12 8.8.9-.1 3.3-1.9 5.1-3.3 1.8-1.4 4.8-4.5 6-5.9.6-.7.9-1.4 1.1-2-1.2.3-1.9.7-1.9.7z"/><path fill="#fdc305" d="M65.2 3.5l-8.4 9.4-1.3-2L63.7 0zM62.6 17.3l5.6-4.2-.8-3.7-5.4 4.8zM59.9 49.4l6.2 3.2 3-2.4-6.7-2.7zM2 6l3-3.4 9.3 9-1.2 2.3zM7.4 16.3l-4.7-3.1L.3 17l5.1 2.4zM13.9 52.6l-4.5 3.3 2.8 3.6 4-4z"/><path fill="#fdc305" d="M25.9 28s-3.8-1.4-5.2-1.8c-1.4-.4-2.3-.7-4 .6-1.8 1.3-1.7 3.9-1.7 3.9s.4 1 .5 1.4c0 .5-1.2.4-2 .4s-.9-1.4-.3-3.1c.6-1.7 1.9-3.7 1.9-3.7-5.4 2.8-15 9.4-15 9.4s2.9-.3 8.2.2c5.3.5 5 4.7 5 4.7s3.5-1 5.6-1.1c2.1-.1 2.3 2.1 2.3 2.1l.5 3.9s.5-.6 2.7-2.4c1.9-1.5 3.9-1.4 4.4-1.3L25.9 28z"/><path fill="#111111" d="M85.7 42c-.9-1.2-1.4-2.9-1.4-5.2v-7.5c0-2.3.5-4.1 1.4-5.2.9-1.2 2.5-1.8 4.8-1.8 2.1 0 3.7.5 4.5 1.6.9 1 1.3 2.5 1.3 4.5v1.8h-4.1v-1.9c0-.6 0-1.1-.1-1.5-.1-.4-.2-.7-.5-.9-.2-.2-.6-.4-1.2-.4-.8 0-1.3.3-1.5.8-.2.5-.3 1.2-.3 2.2V38c0 1 .1 1.7.4 2.2.3.5.7.7 1.4.7s1.2-.2 1.4-.7c.2-.5.3-1.2.3-2.2v-2h4.1v1.7c0 2-.4 3.6-1.3 4.6-.9 1.1-2.4 1.6-4.6 1.6-2.1-.1-3.7-.7-4.6-1.9zM101.9 22.6h4.7l4 21h-3.9l-.8-4.6h-3.3l-.8 4.6h-4l4.1-21zm3.7 13.7l-1.3-8.4-1.2 8.4h2.5zM113.7 25.7h-3.2v-3.2h10.7v3.2H118v17.8h-4.3V25.7z"/><path fill="#444444" d="M129.6 22.6h8.1v2.2h-5.2v6.9h4.2v2.1h-4.2v7.7h5.3v2.1h-8.2v-21zM140.1 22.6h2l6 13.9V22.6h2.4v21h-1.9l-6-14.3v14.3h-2.5v-21zM153.8 22.6h8.1v2.2h-5.2v6.9h4.2v2.1h-4.2v7.7h5.3v2.1h-8.2v-21zM164.4 22.6h4.2c2.1 0 3.7.4 4.7 1.3s1.5 2.3 1.5 4.3c0 2.7-.9 4.3-2.6 4.9l3 10.5h-2.8l-2.7-9.8h-2.3v9.8h-2.9v-21zm4 9c1.3 0 2.2-.2 2.7-.8.5-.5.8-1.4.8-2.7 0-.9-.1-1.5-.3-2-.2-.5-.5-.9-1-1.1-.5-.2-1.2-.3-2-.3h-1.3v6.9h1.1zM178.7 42c-.8-1.2-1.3-3-1.3-5.3v-7c0-1.6.2-3 .5-4s.9-1.8 1.7-2.4c.8-.6 1.9-.8 3.4-.8 1.9 0 3.3.5 4.2 1.5.9 1 1.3 2.5 1.3 4.6v.8h-2.7v-.6c0-1-.1-1.8-.2-2.3-.1-.5-.4-1-.8-1.2-.4-.3-1-.4-1.7-.4-.8 0-1.4.2-1.8.6-.4.4-.7.9-.8 1.5-.1.6-.2 1.4-.2 2.5V37c0 1.6.2 2.8.6 3.5.4.7 1.1 1 2.2 1s1.8-.4 2.2-1.1c.4-.8.6-2 .6-3.6v-1.4h-2.7v-2.1h5.3v10.4h-1.8l-.3-2.4c-.7 1.8-1.9 2.7-3.7 2.7-1.8-.2-3.2-.8-4-2zM194.7 36.1l-4.5-13.6h2.7l3.2 10.1 3.2-10.1h2.7l-4.5 13.6v7.4h-2.8v-7.4z"/></symbol><symbol id="adaptive-logo--mobile" viewBox="0 0 33 38"><path fill="#fdc305" d="M6.1 20.7l.1-2.3c6.7-.9 13.4-1.4 20.2-1.3 0 .6 0 1.2-.1 1.8 0 0 2.9-1.3 6-1.8-2.4-6.3-8.5-10.8-15.6-10.8C8.4 6.3 1.5 12.4.2 20.4c2.2.1 5.9.3 5.9.3zM27.2 24.2c-1.2 1.3-1.4 1.2-1.4 3.5v9.2c4.5-3 7.4-8.1 7.4-13.9 0-1.1-.1-2.1-.3-3.1-1.7 1.1-4.7 3.2-5.7 4.3zM6.4 25.7s-3.8-1.4-5.2-1.8L0 23.6c.2 6 3.7 11.3 8.7 14L6.4 25.7z"/><path fill="#f06351" d="M26.3 17.1C26.4 8.6 24.9.6 24.9.6s-.2-1.2-.9-.2c-.7 1.1-1.2 3.9-1.2 3.9-7.4-.4-12.8.3-12.8.3C9.2 2 7.9.8 7.2 1c-.7.3-.7 3.4-.7 3.4l-.4 14.1c6.7-1 13.5-1.4 20.2-1.4z"/><path d="M12.4 14c0-.1 1 .7 1.4.9.4.2.6.4.6.6 0 .2-.3.3-.6.3s-.9-.1-1-.3H14c.1.1-1.3-1-1.6-1.5zM19.9 14.1s-1 1.3-1.1 1.3c0 .1-.2.3.2.3s1.1-.2 1.2-.3c.1-.1.1-.2-.1-.2s-.7 0-1 .1l.8-1.2s.1-.1 0 0zM16.8 20.2s.8-.4 1.1-1c.3-.7 0-.9-.4-1-.5-.1-1.3 0-1.7.3-.4.4-.3.7-.1 1 .2.2.8.6 1.1.7z"/><path fill="#f06351" d="M16.3 21.5s-.2.4-.5.6c-.2.2-.6.4-1 .4-.6 0-1.1-.2-1.5-.4-.2-.1-.4-.3-.5-.4-.2-.2-.4-.3-.4-.3s.7 4.1 2.6 4.7c1.8.6 2.1-.7 2.2-1.1 0-.3 0-2.1-.8-3.2.1-.4 0-.2-.1-.3z"/><g><path d="M14.7 22.6c-1.3 0-2.3-1.4-2.3-1.4V21h.2s1 1.3 2.1 1.3c.6 0 1.1-.3 1.6-1l.1-.2.1.2s.4.8 1 .8c.5 0 1.1-.4 1.6-1.3 0-.1.1-.1.2 0 .1 0 .1.1 0 .2-.6 1-1.3 1.4-1.9 1.4-.6 0-.9-.5-1.1-.8-.4.7-1 1-1.6 1z"/></g><path fill="#f06351" d="M26.2 18.9s-2.5 2.2-5.1 5.2-5.2 4.9-5.2 4.9c-.2-.5-1.6-1.5-1.6-1.5s-3.1-2.1-5.2-3.8c-1.2-1-2.3-2.2-3.1-3-.3 0-1.1-.1-2-.1 4.7 7 12 8.8 12 8.8.9-.1 3.3-1.9 5.1-3.3 1.8-1.4 4.8-4.5 5.9-5.9.6-.7.9-1.4 1.1-2-1.1.4-1.9.7-1.9.7z"/></symbol><symbol id="adaptive-logo--tablet" viewBox="0 0 173 58"><path d="M59.6 21.7C54.2 8.7 39.3 2.6 26.3 8S7.1 28.4 12.6 41.4c3.6 8.5 11.3 14.1 19.8 15.4-.6-2.1-1.2-4.4-1.7-6.8 1.5 1 3.1 1.8 4.7 2.5 0 0 .1 2.1.3 4.5 1.8 0 3.5-.1 5.3-.5v-.8c.3-1.9 1.1-5.2 1.2-7.4 1.1-1.1 2.1-2.3 2.9-3.7 0 .1 0 .3-.1.4-.6 4.2-1.7 8.8-2.4 10-.2.4-.5.9-.8 1.1 1.4-.3 2.7-.8 4.1-1.3 13-5.1 19.2-20.1 13.7-33.1zm-1.4 3.8c-.4.4-1.3.7-1.5-.6-.1-1.3-.2-2.2-.2-2.2s-1.9-3.4-2.6-3.5c-.7 0-5.8 3.5-7.1 4.9-1.2 1.3-1.4 1.2-1.4 3.5 0 1.7.2 8.1.1 13.1 0 0-2.2.6-8.1 2.2-5.9 1.6-7.8 1.8-7.8 1.8l-1-5.8L26 25.8s-3.8-1.4-5.2-1.8c-1.4-.4-2.3-.7-4 .6-1.8 1.3-1.7 3.8-1.7 3.8s.4 1 .5 1.4c0 .5-1.2.4-2 .4s-.9-1.4-.3-3.1c.6-1.7 1.9-3.7 1.9-3.7s1.2-2.3 2.1-2.9c0 0 .1-.3 1.2-.2 1.1.1 7.2.4 7.2.4l.1-2.3c6.7-.9 13.4-1.4 20.2-1.3 0 .6 0 1.2-.1 1.8 0 0 4.4-2 8.1-2 0 0 .4 0 .8.4.3.4 2.4 3 2.6 3.4.2.4 1.2 1.7 1.8 3-.2 0-.6 1.4-1 1.8z" fill="#fdc305"/><path fill="#f06351" d="M56.2 19.4c.5.6.9 1.1 1 1.3.2.4 1.2 1.7 1.8 3 0 0-.4 1.3-.9 1.8-.4.4-1.3.7-1.5-.6-.1-1.3-.2-2.2-.2-2.2s-1.9-3.4-2.6-3.5c-.7 0-5.8 3.5-7.1 4.9-1.2 1.3-1.4 1.2-1.4 3.5 0 1.5.2 6.6.1 11.2 1.8.2 4.4.7 5.2 1.9 0 0-.3-7.1 7.8-3.4 0 0 .3-9.7 11.4-7.2.1 0-5.6-7-13.6-10.7zM45.7 17.1C45.8 8.6 44.3.6 44.3.6s-.1-1.3-.9-.2c-.7 1.1-1.2 3.9-1.2 3.9-7.4-.4-12.8.3-12.8.3-.8-2.7-2.2-3.9-2.9-3.6-.7.3-.7 3.3-.7 3.3l-.3 14.1c6.7-.9 13.5-1.3 20.2-1.3z"/><path d="M45.2 44.8c.1-1.1.2-2.5.2-4 0 0-2.2.6-8.1 2.2-5.9 1.6-7.8 1.8-7.8 1.8l1.1 5c0 .1 0 .2.1.3 1.5 1 3.1 1.8 4.7 2.5 4.4-2.2 6.8-4.1 6.8-4.1v.1c1.2-1.2 2.2-2.5 3-3.8z" fill="#e55645"/><path d="M31.9 14c0-.1 1 .7 1.4.9s.6.4.6.6-.3.3-.6.3-.9-.1-1-.3h1.2c0 .1-1.4-1-1.6-1.5zM39.3 14.1s-1 1.3-1.1 1.3-.2.3.2.3 1.1-.2 1.2-.3.1-.2-.1-.2-.7 0-1 .1l.8-1.2c.1 0 .1-.1 0 0zM36.2 20.2s.8-.4 1.1-1 0-.9-.4-1c-.5-.1-1.3 0-1.7.3-.4.4-.3.7-.1 1 .2.2.8.6 1.1.7z"/><path fill="#f06351" d="M35.8 21.4s-.2.4-.5.6c-.2.2-.6.4-1 .4-.6 0-1.1-.2-1.5-.4-.2-.1-.4-.3-.5-.4-.2-.2-.4-.3-.4-.3s.7 4.1 2.6 4.7c1.8.6 2.1-.7 2.2-1.1 0-.3 0-2.1-.8-3.2 0-.3 0-.1-.1-.3z"/><path d="M34.2 22.6c-.1 0-.1 0 0 0-1.3 0-2.3-1.4-2.3-1.4V21h.2s1 1.3 2.1 1.3c.6 0 1.1-.3 1.6-1l.1-.2.1.2s.4.8 1 .8c.5 0 1.1-.4 1.6-1.3 0-.1.1-.1.2 0 .1 0 .1.1 0 .2-.6 1-1.3 1.4-1.9 1.4-.6 0-.9-.5-1.1-.8-.4.7-1 1-1.6 1z"/><path fill="#111111" d="M41.1 29.2L38 30.5l1.1-5.6-7.5 9.7 3.1-1.3-1.1 5.6 7.5-9.7zM33.7 33l4.1-5.4-.8 4 2-.8-4.1 5.4.8-4-2 .8z"/><path fill="#f06351" d="M45.7 18.9s-2.5 2.2-5.1 5.2C38.1 27 35.3 29 35.3 29c-.2-.5-1.6-1.5-1.6-1.5s-3.1-2.1-5.2-3.8c-1.2-1-2.3-2.2-3.1-3-.3 0-1.1-.1-2-.1 4.7 7 12 8.8 12 8.8.9-.1 3.3-1.9 5.1-3.3s4.8-4.5 5.9-5.9c.6-.7.9-1.4 1.1-2-1.1.4-1.8.7-1.8.7zM25.8 25.7s-3.8-1.4-5.2-1.8c-1.4-.4-2.3-.7-4 .6-1.8 1.3-1.7 3.8-1.7 3.8s.4 1 .5 1.4c0 .5-1.2.4-2 .4s-.9-1.4-.3-3.1c.6-1.7 1.9-3.7 1.9-3.7-5.4 2.8-15 9.4-15 9.4s2.9-.3 8.2.2c5.2.5 4.9 4.7 4.9 4.7s3.5-1 5.6-1.1c2.1-.1 2.3 2.1 2.3 2.1l.5 3.8s.5-.6 2.6-2.4c1.9-1.5 3.9-1.4 4.4-1.3l-2.7-13z"/><path fill="#111111" d="M89.6 37.1c-.7-.9-1-2.1-1-3.7v-5.3c0-1.6.3-2.9 1-3.7.7-.8 1.8-1.3 3.4-1.3 1.5 0 2.6.4 3.2 1.1.6.7.9 1.8.9 3.2v1.3h-2.9v-1.4c0-.4 0-.8-.1-1.1 0-.3-.2-.5-.3-.7-.2-.2-.5-.3-.8-.3-.6 0-.9.2-1.1.5-.2.4-.2.9-.2 1.6v6.8c0 .7.1 1.2.3 1.6.2.3.5.5 1 .5s.8-.2 1-.5c.1-.3.2-.9.2-1.6v-1.5h2.9v1.2c0 1.4-.3 2.5-.9 3.3-.6.8-1.7 1.2-3.2 1.2-1.7.1-2.8-.3-3.4-1.2zM101.1 23.3h3.4l2.9 14.9h-2.8l-.6-3.3h-2.4l-.6 3.3h-2.9l3-14.9zm2.6 9.7l-.9-6-.9 6h1.8zM109.5 25.5h-2.3v-2.2h7.6v2.2h-2.3v12.7h-3.1V25.5z"/><path fill="#444444" d="M120.8 23.3h5.8v1.5h-3.7v4.9h3v1.5h-3v5.5h3.7v1.5h-5.8V23.3zM128.3 23.3h1.4l4.2 9.9v-9.9h1.7v14.9h-1.3L130.1 28v10.2h-1.8V23.3zM138 23.3h5.8v1.5h-3.7v4.9h3v1.5h-3v5.5h3.7v1.5H138V23.3zM145.5 23.3h3c1.5 0 2.6.3 3.3.9.7.6 1.1 1.6 1.1 3 0 1.9-.6 3.1-1.8 3.5l2.1 7.5h-2l-2-7h-1.6v7h-2.1V23.3zm2.9 6.4c.9 0 1.5-.2 1.9-.5.4-.4.6-1 .6-1.9 0-.6-.1-1.1-.2-1.4-.1-.3-.4-.6-.7-.8-.3-.2-.8-.2-1.5-.2h-.9v4.9h.8zM155.7 37.1c-.6-.9-.9-2.1-.9-3.8v-5c0-1.2.1-2.1.4-2.8.2-.7.7-1.3 1.2-1.7.6-.4 1.4-.6 2.4-.6 1.4 0 2.4.3 3 1 .6.7.9 1.8.9 3.3v.6h-2v-.5c0-.7 0-1.3-.1-1.6-.1-.4-.3-.7-.5-.9-.3-.2-.7-.3-1.2-.3-.6 0-1 .1-1.3.4-.3.3-.5.6-.5 1.1-.1.4-.1 1-.1 1.8v5.5c0 1.1.1 2 .4 2.5.3.5.8.7 1.6.7s1.3-.3 1.6-.8c.3-.5.4-1.4.4-2.6v-1h-2v-1.5h3.8v7.4h-1.3l-.2-1.7c-.5 1.3-1.4 1.9-2.7 1.9-1.3-.1-2.3-.5-2.9-1.4zM167.1 32.9l-3.2-9.6h1.9l2.3 7.2 2.2-7.2h2l-3.2 9.6v5.3h-2v-5.3z"/></symbol><symbol id="footer-logo" viewBox="0 0 128 24"><path fill="#111111" d="M1.6 21.5C.6 20.2 0 18.3 0 15.9V7.6c0-2.5.5-4.4 1.5-5.7C2.6.6 4.3 0 6.8 0c2.4 0 4.1.6 5.1 1.7s1.5 2.8 1.5 4.9v2H8.5V6.3c0-.9-.1-1.6-.3-2s-.6-.8-1.4-.8c-.7 0-1.2.2-1.4.7s-.3 1.3-.3 2.2v10.7c0 .9.1 1.6.4 2.1.2.5.7.7 1.4.7s1.1-.2 1.3-.7.3-1.2.3-2.1v-2.4h4.9v2c0 2.1-.5 3.8-1.5 5s-2.7 1.8-5.1 1.8c-2.4-.1-4.2-.7-5.2-2zM19.3.3H25l4.2 22.8h-4.6l-.8-4.8h-3.3l-.8 4.8H15L19.3.3zm4.1 15l-1.2-8.9-1.2 8.9h2.4zM32.7 4.1h-3.4V.3h11.9V4h-3.4v19.1h-5.1v-19zM50.3.3h8.8v2.4h-5.7v7.5H58v2.3h-4.6v8.4h5.7v2.3h-8.9V.3h.1zM61.7.3h2.2l6.5 15.1V.3H73v22.8h-2L64.4 7.5v15.6h-2.7V.3zM76 .3h8.8v2.4h-5.7v7.5h4.6v2.3h-4.6v8.4h5.7v2.3H76V.3zM87.4.3H92c2.3 0 4 .5 5.1 1.4s1.6 2.5 1.6 4.6c0 2.9-.9 4.7-2.8 5.3L99.1 23H96l-3-10.7h-2.5V23h-3.2L87.4.3zm4.4 9.8c1.4 0 2.3-.3 2.9-.8s.9-1.5.9-3c0-.9-.1-1.7-.3-2.2-.2-.5-.6-.9-1.1-1.2s-1.3-.4-2.2-.4h-1.4V10h1.2v.1zM102.7 21.4c-.9-1.3-1.4-3.2-1.4-5.8V8c0-1.8.2-3.2.5-4.3.4-1.1 1-2 1.9-2.6s2.1-.9 3.7-.9c2.1 0 3.6.5 4.5 1.6s1.4 2.7 1.4 5v.8h-3v-.7c0-1.1-.1-1.9-.2-2.5s-.4-1-.8-1.3-1-.5-1.9-.5-1.5.2-2 .6-.7.9-.8 1.6-.2 1.6-.2 2.7V16c0 1.7.2 3 .6 3.8s1.2 1.1 2.4 1.1 2-.4 2.4-1.2c.4-.8.7-2.1.7-4v-1.6h-2.9v-2.3h5.8v11.3h-2l-.3-2.6c-.7 1.9-2.1 2.9-4.1 2.9-1.9 0-3.4-.7-4.3-2zM119.8 15.1L114.9.4h3l3.5 11 3.4-11h3l-4.9 14.7v8h-3l-.1-8z"/></symbol><symbol id="icon-fb" viewBox="0 0 13.5 27.8"><path d="M9.5 27.8H2.7v-13H0V8.5h2.6c-.2-2.9.3-5 1.5-6.5C5.1.8 6.7.1 8.7 0h4.8v6.2H9.8c-.2.3-.3 1-.3 2.3h4v6.4h-4v12.9zm-5.3-1.5H8v-13h4V10H8v-.7c0-2 0-3.8 1-4.5l.2-.1H12V1.5H8.8c-1.6.1-2.7.6-3.5 1.5-1 1.2-1.4 3.3-1.1 6.1l.1.9H1.5v3.4h2.7v12.9z"/></symbol><symbol id="icon-twitter" viewBox="0 0 50 50"><path d="M 34.21875 5.46875 C 28.238281 5.46875 23.375 10.332031 23.375 16.3125 C 23.375 16.671875 23.464844 17.023438 23.5 17.375 C 16.105469 16.667969 9.566406 13.105469 5.125 7.65625 C 4.917969 7.394531 4.597656 7.253906 4.261719 7.277344 C 3.929688 7.300781 3.632813 7.492188 3.46875 7.78125 C 2.535156 9.386719 2 11.234375 2 13.21875 C 2 15.621094 2.859375 17.820313 4.1875 19.625 C 3.929688 19.511719 3.648438 19.449219 3.40625 19.3125 C 3.097656 19.148438 2.726563 19.15625 2.425781 19.335938 C 2.125 19.515625 1.941406 19.839844 1.9375 20.1875 L 1.9375 20.3125 C 1.9375 23.996094 3.84375 27.195313 6.65625 29.15625 C 6.625 29.152344 6.59375 29.164063 6.5625 29.15625 C 6.21875 29.097656 5.871094 29.21875 5.640625 29.480469 C 5.410156 29.742188 5.335938 30.105469 5.4375 30.4375 C 6.554688 33.910156 9.40625 36.5625 12.9375 37.53125 C 10.125 39.203125 6.863281 40.1875 3.34375 40.1875 C 2.582031 40.1875 1.851563 40.148438 1.125 40.0625 C 0.65625 40 0.207031 40.273438 0.0507813 40.71875 C -0.109375 41.164063 0.0664063 41.660156 0.46875 41.90625 C 4.980469 44.800781 10.335938 46.5 16.09375 46.5 C 25.425781 46.5 32.746094 42.601563 37.65625 37.03125 C 42.566406 31.460938 45.125 24.226563 45.125 17.46875 C 45.125 17.183594 45.101563 16.90625 45.09375 16.625 C 46.925781 15.222656 48.5625 13.578125 49.84375 11.65625 C 50.097656 11.285156 50.070313 10.789063 49.777344 10.445313 C 49.488281 10.101563 49 9.996094 48.59375 10.1875 C 48.078125 10.417969 47.476563 10.441406 46.9375 10.625 C 47.648438 9.675781 48.257813 8.652344 48.625 7.5 C 48.75 7.105469 48.613281 6.671875 48.289063 6.414063 C 47.964844 6.160156 47.511719 6.128906 47.15625 6.34375 C 45.449219 7.355469 43.558594 8.066406 41.5625 8.5 C 39.625 6.6875 37.074219 5.46875 34.21875 5.46875 Z M 34.21875 7.46875 C 36.769531 7.46875 39.074219 8.558594 40.6875 10.28125 C 40.929688 10.53125 41.285156 10.636719 41.625 10.5625 C 42.929688 10.304688 44.167969 9.925781 45.375 9.4375 C 44.679688 10.375 43.820313 11.175781 42.8125 11.78125 C 42.355469 12.003906 42.140625 12.53125 42.308594 13.011719 C 42.472656 13.488281 42.972656 13.765625 43.46875 13.65625 C 44.46875 13.535156 45.359375 13.128906 46.3125 12.875 C 45.457031 13.800781 44.519531 14.636719 43.5 15.375 C 43.222656 15.578125 43.070313 15.90625 43.09375 16.25 C 43.109375 16.65625 43.125 17.058594 43.125 17.46875 C 43.125 23.71875 40.726563 30.503906 36.15625 35.6875 C 31.585938 40.871094 24.875 44.5 16.09375 44.5 C 12.105469 44.5 8.339844 43.617188 4.9375 42.0625 C 9.15625 41.738281 13.046875 40.246094 16.1875 37.78125 C 16.515625 37.519531 16.644531 37.082031 16.511719 36.683594 C 16.378906 36.285156 16.011719 36.011719 15.59375 36 C 12.296875 35.941406 9.535156 34.023438 8.0625 31.3125 C 8.117188 31.3125 8.164063 31.3125 8.21875 31.3125 C 9.207031 31.3125 10.183594 31.1875 11.09375 30.9375 C 11.53125 30.808594 11.832031 30.402344 11.816406 29.945313 C 11.800781 29.488281 11.476563 29.097656 11.03125 29 C 7.472656 28.28125 4.804688 25.382813 4.1875 21.78125 C 5.195313 22.128906 6.226563 22.402344 7.34375 22.4375 C 7.800781 22.464844 8.214844 22.179688 8.355469 21.746094 C 8.496094 21.3125 8.324219 20.835938 7.9375 20.59375 C 5.5625 19.003906 4 16.296875 4 13.21875 C 4 12.078125 4.296875 11.03125 4.6875 10.03125 C 9.6875 15.519531 16.6875 19.164063 24.59375 19.5625 C 24.90625 19.578125 25.210938 19.449219 25.414063 19.210938 C 25.617188 18.96875 25.695313 18.648438 25.625 18.34375 C 25.472656 17.695313 25.375 17.007813 25.375 16.3125 C 25.375 11.414063 29.320313 7.46875 34.21875 7.46875 Z"/></symbol><symbol id="icon-vk" viewBox="0 0 30 16"><path d="M23.9 15.8c-.4 0-1.2-.1-2.1-.6-.6-.4-1.2-1-1.8-1.5-.4-.4-1.2-1.2-1.4-1.2-.3.1-.5.9-.5 1.6 0 .1 0 .8-.5 1.2-.4.4-1.1.5-1.2.5h-1.9c-1 0-4.4-.2-7.4-3C3.4 9.4.3 3 .1 2.7 0 2.2-.1 1.5.3 1.1.7.7 1.4.6 1.7.6H5.9c.1 0 .6.1 1 .3.4.2.6.7.6.7S8.1 3 9 4.3c1.3 2 1.9 2.5 2.1 2.6.2-.4.3-1.7.2-2.9 0-.5-.1-1.1-.3-1.3-.1-.1-.4-.3-.8-.3l-.7-.6c-.1-.7.6-1.2 1.1-1.4.7-.3 1.8-.4 3.1-.4h.7c1.2 0 1.6.1 2.1.2 1.7.4 1.6 1.7 1.6 3.3v2.1c0 .4 0 1 .1 1.3.2-.1.9-.7 2.1-2.5.8-1.2 1.4-2.5 1.5-2.8.2-.4.6-.9 1.6-.9h4.7c1 0 1.6.3 1.8.9.3.6.2 1.7-2.4 4.6-.4.4-.7.8-1 1.1-.6.7-1.2 1.4-1.2 1.6.1.1.7.6 1.3 1.1 1.5 1.2 2.5 2.3 3 3.1.5.8.4 1.3.3 1.7-.4.9-1.6 1-1.9 1h-4.1zm-5.3-4.9c.9 0 1.7.8 2.5 1.6.5.5 1 1 1.5 1.3.7.4 1.3.4 1.4.4h3.9c.2 0 .4-.1.5-.1 0 0 0-.1-.1-.2-.4-.7-1.4-1.7-2.7-2.7-1.2-1-1.8-1.5-1.9-2.2-.1-.8.5-1.4 1.6-2.7.3-.3.6-.7 1-1.1 1.6-1.8 2-2.6 2.1-3H23.1c-.2.4-.8 1.8-1.6 3-1.9 2.8-2.8 3.2-3.4 3.2-.2 0-.4 0-.6-.1-1-.6-1-1.8-.9-2.8v-.4-1.7c.1-1.7 0-1.7-.4-1.8-.4-.1-.7-.1-1.9-.2h-.7c-.6 0-1.3 0-1.9.1l.3.3c.6.7.6 2 .6 2.2.1 1.6.1 3.8-1 4.3-.2.1-.4.1-.6.1-.9 0-1.9-.9-3.4-3.3-.8-1.2-1.5-2.7-1.5-2.8L6 2.2c-.1 0-.2-.1-.3-.1h-4-.1c.6 1.2 3.4 6.6 6.5 9.5 2.7 2.5 5.8 2.6 6.4 2.6h1.9s.2-.1.3-.1V14c0-.3 0-2.6 1.6-3 .1-.1.2-.1.3-.1z"/></symbol></svg>